w400r100.ufo
<glyph name="_4" format="2">
	<unicode hex="0104"/>
	<unicode hex="0063"/>
	<advance width="400"/>
	<outline>
		<component base="cap"/>
		<component base="cap" yOffset="-360"/>
		<contour>
			<point x="0" y="200" type="line"/>
			<point x="0" y="-160" type="line"/>
			<point x="400" y="-160" type="line"/>
			<point x="400" y="200" type="line"/>
		</contour>
	</outline>
</glyph>
<glyph name="_6" format="2">
  <advance width="400"/>
  <unicode hex="0106"/>
  <unicode hex="0064"/>
  <outline>
    <component base="cap" xOffset="0" yOffset="0" />
    <component base="cap" xOffset="0" yOffset="-340" />
    <contour>
      <point x="0" y="200" type="line"/>
      <point x="0" y="-140" type="line"/>
      <point x="400" y="-140" type="line"/>
      <point x="400" y="200" type="line"/>
    </contour>
  </outline>
</glyph>
<glyph name="_8" format="2">
  <advance width="400"/>
  <unicode hex="0108"/>
  <unicode hex="0065"/>
  <outline>
    <component base="cap" xOffset="0" yOffset="0" />
    <component base="cap" xOffset="0" yOffset="-320" />
    <contour>
      <point x="0" y="200" type="line"/>
      <point x="0" y="-120" type="line"/>
      <point x="400" y="-120" type="line"/>
      <point x="400" y="200" type="line"/>
    </contour>
  </outline>
</glyph>
<glyph name="_16" format="2">
  <advance width="400"/>
  <unicode hex="0110"/>
  <unicode hex="0069"/>
  <outline>
    <component base="cap" xOffset="0" yOffset="0" />
    <component base="cap" xOffset="0" yOffset="-240" />
    <contour>
      <point x="0" y="200" type="line"/>
      <point x="0" y="-40" type="line"/>
      <point x="400" y="-40" type="line"/>
      <point x="400" y="200" type="line"/>
    </contour>
  </outline>
</glyph>
<glyph name="_17" format="2">
	<unicode hex="0111"/>
	<advance width="400"/>
	<outline>
		<component base="cap"/>
		<component base="cap" yOffset="-230"/>
		<contour>
			<point x="0" y="200" type="line"/>
			<point x="0" y="-30" type="line"/>
			<point x="400" y="-30" type="line"/>
			<point x="400" y="200" type="line"/>
		</contour>
	</outline>
</glyph>
<glyph name="_23" format="2">
  <advance width="400"/>
  <unicode hex="0117"/>
  
  <outline>
    <component base="cap" xOffset="0" yOffset="0" />
    <component base="cap" xOffset="0" yOffset="-170" />
    <contour>
      <point x="0" y="200" type="line"/>
      <point x="0" y="30" type="line"/>
      <point x="400" y="30" type="line"/>
      <point x="400" y="200" type="line"/>
    </contour>
  </outline>
</glyph>
<glyph name="_30" format="2">
	<unicode hex="011E"/>
	<unicode hex="0033"/>
	<unicode hex="0070"/>
	<advance width="400"/>
	<outline>
		<component base="cap"/>
		<component base="cap" yOffset="-100"/>
		<contour>
			<point x="0" y="200" type="line"/>
			<point x="0" y="100" type="line"/>
			<point x="400" y="100" type="line"/>
			<point x="400" y="200" type="line"/>
		</contour>
	</outline>
</glyph>
<glyph name="_33" format="2">
	<unicode hex="0121"/>
	<advance width="400"/>
	<outline>
		<component base="cap"/>
		<component base="cap" yOffset="-70"/>
		<contour>
			<point x="0" y="200" type="line"/>
			<point x="0" y="130" type="line"/>
			<point x="400" y="130" type="line"/>
			<point x="400" y="200" type="line"/>
		</contour>
	</outline>
</glyph>
<glyph name="_36" format="2">
	<unicode hex="0124"/>
	<unicode hex="0073"/>
	<advance width="400"/>
	<outline>
		<component base="cap"/>
		<component base="cap" yOffset="-40"/>
		<contour>
			<point x="0" y="200" type="line"/>
			<point x="0" y="160" type="line"/>
			<point x="400" y="160" type="line"/>
			<point x="400" y="200" type="line"/>
		</contour>
	</outline>
</glyph>
<glyph name="_38" format="2">
  <advance width="400"/>
  <unicode hex="0126"/>
  <unicode hex="0074"/>
  <outline>
    <component base="cap" xOffset="0" yOffset="0" />
    <component base="cap" xOffset="0" yOffset="-20" />
    <contour>
      <point x="0" y="200" type="line"/>
      <point x="0" y="180" type="line"/>
      <point x="400" y="180" type="line"/>
      <point x="400" y="200" type="line"/>
    </contour>
  </outline>
</glyph>
<glyph name="_42" format="2">
	<unicode hex="012A"/>
	<unicode hex="2584"/>
	<unicode hex="0076"/>
	<advance width="400"/>
	<outline>
		<component base="cap"/>
		<component base="cap" yOffset="20"/>
		<contour>
			<point x="0" y="200" type="line"/>
			<point x="0" y="220" type="line"/>
			<point x="400" y="220" type="line"/>
			<point x="400" y="200" type="line"/>
		</contour>
	</outline>
</glyph>
<glyph name="_44" format="2">
	<unicode hex="012C"/>
	<unicode hex="0077"/>
	<advance width="400"/>
	<outline>
		<component base="cap"/>
		<component base="cap" yOffset="40"/>
		<contour>
			<point x="0" y="200" type="line"/>
			<point x="0" y="240" type="line"/>
			<point x="400" y="240" type="line"/>
			<point x="400" y="200" type="line"/>
		</contour>
	</outline>
</glyph>
<glyph name="_46" format="2">
	<unicode hex="012E"/>
	<unicode hex="0078"/>
	<advance width="400"/>
	<outline>
		<component base="cap"/>
		<component base="cap" yOffset="60"/>
		<contour>
			<point x="0" y="200" type="line"/>
			<point x="0" y="260" type="line"/>
			<point x="400" y="260" type="line"/>
			<point x="400" y="200" type="line"/>
		</contour>
	</outline>
</glyph>
<glyph name="_47" format="2">
  <advance width="400"/>
  <unicode hex="012F"/>
  
  <outline>
    <component base="cap" xOffset="0" yOffset="0" />
    <component base="cap" xOffset="0" yOffset="70" />
    <contour>
      <point x="0" y="200" type="line"/>
      <point x="0" y="270" type="line"/>
      <point x="400" y="270" type="line"/>
      <point x="400" y="200" type="line"/>
    </contour>
  </outline>
</glyph>
<glyph name="_52" format="2">
	<unicode hex="0134"/>
	<unicode hex="0041"/>
	<advance width="400"/>
	<outline>
		<component base="cap"/>
		<component base="cap" yOffset="120"/>
		<contour>
			<point x="0" y="200" type="line"/>
			<point x="0" y="320" type="line"/>
			<point x="400" y="320" type="line"/>
			<point x="400" y="200" type="line"/>
		</contour>
	</outline>
</glyph>
<glyph name="_56" format="2">
	<unicode hex="0138"/>
	<unicode hex="2585"/>
	<unicode hex="0043"/>
	<advance width="400"/>
	<outline>
		<component base="cap"/>
		<component base="cap" yOffset="160"/>
		<contour>
			<point x="0" y="200" type="line"/>
			<point x="0" y="360" type="line"/>
			<point x="400" y="360" type="line"/>
			<point x="400" y="200" type="line"/>
		</contour>
	</outline>
</glyph>
<glyph name="_59" format="2">
	<unicode hex="013B"/>
	<advance width="400"/>
	<outline>
		<component base="cap"/>
		<component base="cap" yOffset="190"/>
		<contour>
			<point x="0" y="200" type="line"/>
			<point x="0" y="390" type="line"/>
			<point x="400" y="390" type="line"/>
			<point x="400" y="200" type="line"/>
		</contour>
	</outline>
</glyph>
<glyph name="_60" format="2">
	<unicode hex="013C"/>
	<unicode hex="0036"/>
	<unicode hex="0045"/>
	<advance width="400"/>
	<outline>
		<component base="cap"/>
		<component base="cap" yOffset="200"/>
		<contour>
			<point x="0" y="200" type="line"/>
			<point x="0" y="400" type="line"/>
			<point x="400" y="400" type="line"/>
			<point x="400" y="200" type="line"/>
		</contour>
	</outline>
</glyph>
<glyph name="_64" format="2">
	<unicode hex="0140"/>
	<unicode hex="0047"/>
	<advance width="400"/>
	<outline>
		<component base="cap"/>
		<component base="cap" yOffset="240"/>
		<contour>
			<point x="0" y="200" type="line"/>
			<point x="0" y="440" type="line"/>
			<point x="400" y="440" type="line"/>
			<point x="400" y="200" type="line"/>
		</contour>
	</outline>
</glyph>
<glyph name="_68" format="2">
  <advance width="400"/>
  <unicode hex="0144"/>
  <unicode hex="0049"/>
  <outline>
    <component base="cap" xOffset="0" yOffset="0" />
    <component base="cap" xOffset="0" yOffset="280" />
    <contour>
      <point x="0" y="200" type="line"/>
      <point x="0" y="480" type="line"/>
      <point x="400" y="480" type="line"/>
      <point x="400" y="200" type="line"/>
    </contour>
  </outline>
</glyph>
<glyph name="_70" format="2">
  <advance width="400"/>
  <unicode hex="0146"/>
  <unicode hex="0037"/><unicode hex="004A"/>
  <outline>
    <component base="cap" xOffset="0" yOffset="0" />
    <component base="cap" xOffset="0" yOffset="300" />
    <contour>
      <point x="0" y="200" type="line"/>
      <point x="0" y="500" type="line"/>
      <point x="400" y="500" type="line"/>
      <point x="400" y="200" type="line"/>
    </contour>
  </outline>
</glyph>
<glyph name="_72" format="2">
	<unicode hex="0148"/>
	<unicode hex="2586"/>
	<unicode hex="004B"/>
	<advance width="400"/>
	<outline>
		<component base="cap"/>
		<component base="cap" yOffset="320"/>
		<contour>
			<point x="0" y="200" type="line"/>
			<point x="0" y="520" type="line"/>
			<point x="400" y="520" type="line"/>
			<point x="400" y="200" type="line"/>
		</contour>
	</outline>
</glyph>
<glyph name="_78" format="2">
	<unicode hex="014E"/>
	<unicode hex="004E"/>
	<advance width="400"/>
	<outline>
		<component base="cap"/>
		<component base="cap" yOffset="380"/>
		<contour>
			<point x="0" y="200" type="line"/>
			<point x="0" y="580" type="line"/>
			<point x="400" y="580" type="line"/>
			<point x="400" y="200" type="line"/>
		</contour>
	</outline>
</glyph>
<glyph name="_79" format="2">
	<unicode hex="014F"/>
	<advance width="400"/>
	<outline>
		<component base="cap"/>
		<component base="cap" yOffset="390"/>
		<contour>
			<point x="0" y="200" type="line"/>
			<point x="0" y="590" type="line"/>
			<point x="400" y="590" type="line"/>
			<point x="400" y="200" type="line"/>
		</contour>
	</outline>
</glyph>
<glyph name="_80" format="2">
	<unicode hex="0150"/>
	<unicode hex="0038"/>
	<unicode hex="004F"/>
	<advance width="400"/>
	<outline>
		<component base="cap"/>
		<component base="cap" yOffset="400"/>
		<contour>
			<point x="0" y="200" type="line"/>
			<point x="0" y="600" type="line"/>
			<point x="400" y="600" type="line"/>
			<point x="400" y="200" type="line"/>
		</contour>
	</outline>
</glyph>
<glyph name="_84" format="2">
  <advance width="400"/>
  <unicode hex="0154"/>
  <unicode hex="0051"/>
  <outline>
    <component base="cap" xOffset="0" yOffset="0" />
    <component base="cap" xOffset="0" yOffset="440" />
    <contour>
      <point x="0" y="200" type="line"/>
      <point x="0" y="640" type="line"/>
      <point x="400" y="640" type="line"/>
      <point x="400" y="200" type="line"/>
    </contour>
  </outline>
</glyph>
<glyph name="_86" format="2">
  <advance width="400"/>
  <unicode hex="0156"/>
  <unicode hex="2587"/><unicode hex="0052"/>
  <outline>
    <component base="cap" xOffset="0" yOffset="0" />
    <component base="cap" xOffset="0" yOffset="460" />
    <contour>
      <point x="0" y="200" type="line"/>
      <point x="0" y="660" type="line"/>
      <point x="400" y="660" type="line"/>
      <point x="400" y="200" type="line"/>
    </contour>
  </outline>
</glyph>
<glyph name="_87" format="2">
	<unicode hex="0157"/>
	<advance width="400"/>
	<outline>
		<component base="cap"/>
		<component base="cap" yOffset="470"/>
		<contour>
			<point x="0" y="200" type="line"/>
			<point x="0" y="670" type="line"/>
			<point x="400" y="670" type="line"/>
			<point x="400" y="200" type="line"/>
		</contour>
	</outline>
</glyph>
<glyph name="_88" format="2">
	<unicode hex="0158"/>
	<unicode hex="0053"/>
	<advance width="400"/>
	<outline>
		<component base="cap"/>
		<component base="cap" yOffset="480"/>
		<contour>
			<point x="0" y="200" type="line"/>
			<point x="0" y="680" type="line"/>
			<point x="400" y="680" type="line"/>
			<point x="400" y="200" type="line"/>
		</contour>
	</outline>
</glyph>
<glyph name="_91" format="2">
	<unicode hex="015B"/>
	<advance width="400"/>
	<outline>
		<component base="cap"/>
		<component base="cap" yOffset="510"/>
		<contour>
			<point x="0" y="200" type="line"/>
			<point x="0" y="710" type="line"/>
			<point x="400" y="710" type="line"/>
			<point x="400" y="200" type="line"/>
		</contour>
	</outline>
</glyph>
<glyph name="_100" format="2">
  <advance width="400"/>
  <unicode hex="0164"/>
  <unicode hex="007C"/><unicode hex="2588"/><unicode hex="005A"/>
  <outline>
    <component base="cap" xOffset="0" yOffset="0" />
    <component base="cap" xOffset="0" yOffset="600" />
    <contour>
      <point x="0" y="200" type="line"/>
      <point x="0" y="800" type="line"/>
      <point x="400" y="800" type="line"/>
      <point x="400" y="200" type="line"/>
    </contour>
  </outline>
</glyph>
<glyph name="_4.center" format="2">
  <advance width="400"/>
  <unicode hex="0404"/>
  
  <outline>
    <component base="cap" xOffset="0" yOffset="480" />
    <component base="cap" xOffset="0" yOffset="120" />
    <contour>
      <point x="0" y="680" type="line"/>
      <point x="0" y="320" type="line"/>
      <point x="400" y="320" type="line"/>
      <point x="400" y="680" type="line"/>
    </contour>
  </outline>
</glyph>
<glyph name="_13.center" format="2">
	<unicode hex="040D"/>
	<advance width="400"/>
	<outline>
		<component base="cap" yOffset="435"/>
		<component base="cap" yOffset="165"/>
		<contour>
			<point x="0" y="635" type="line"/>
			<point x="0" y="365" type="line"/>
			<point x="400" y="365" type="line"/>
			<point x="400" y="635" type="line"/>
		</contour>
	</outline>
</glyph>
<glyph name="_14.center" format="2">
	<unicode hex="040E"/>
	<advance width="400"/>
	<outline>
		<component base="cap" yOffset="430"/>
		<component base="cap" yOffset="170"/>
		<contour>
			<point x="0" y="630" type="line"/>
			<point x="0" y="370" type="line"/>
			<point x="400" y="370" type="line"/>
			<point x="400" y="630" type="line"/>
		</contour>
	</outline>
</glyph>
<glyph name="_15.center" format="2">
  <advance width="400"/>
  <unicode hex="040F"/>
  
  <outline>
    <component base="cap" xOffset="0" yOffset="425" />
    <component base="cap" xOffset="0" yOffset="175" />
    <contour>
      <point x="0" y="625" type="line"/>
      <point x="0" y="375" type="line"/>
      <point x="400" y="375" type="line"/>
      <point x="400" y="625" type="line"/>
    </contour>
  </outline>
</glyph>
<glyph name="_17.center" format="2">
  <advance width="400"/>
  <unicode hex="0411"/>
  
  <outline>
    <component base="cap" xOffset="0" yOffset="415" />
    <component base="cap" xOffset="0" yOffset="185" />
    <contour>
      <point x="0" y="615" type="line"/>
      <point x="0" y="385" type="line"/>
      <point x="400" y="385" type="line"/>
      <point x="400" y="615" type="line"/>
    </contour>
  </outline>
</glyph>
<glyph name="_22.center" format="2">
	<unicode hex="0416"/>
	<advance width="400"/>
	<outline>
		<component base="cap" yOffset="390"/>
		<component base="cap" yOffset="210"/>
		<contour>
			<point x="0" y="590" type="line"/>
			<point x="0" y="410" type="line"/>
			<point x="400" y="410" type="line"/>
			<point x="400" y="590" type="line"/>
		</contour>
	</outline>
</glyph>
<glyph name="_25.center" format="2">
	<unicode hex="0419"/>
	<advance width="400"/>
	<outline>
		<component base="cap" yOffset="375"/>
		<component base="cap" yOffset="225"/>
		<contour>
			<point x="0" y="575" type="line"/>
			<point x="0" y="425" type="line"/>
			<point x="400" y="425" type="line"/>
			<point x="400" y="575" type="line"/>
		</contour>
	</outline>
</glyph>
<glyph name="_26.center" format="2">
	<unicode hex="041A"/>
	<advance width="400"/>
	<outline>
		<component base="cap" yOffset="370"/>
		<component base="cap" yOffset="230"/>
		<contour>
			<point x="0" y="570" type="line"/>
			<point x="0" y="430" type="line"/>
			<point x="400" y="430" type="line"/>
			<point x="400" y="570" type="line"/>
		</contour>
	</outline>
</glyph>
<glyph name="_29.center" format="2">
	<unicode hex="041D"/>
	<advance width="400"/>
	<outline>
		<component base="cap" yOffset="355"/>
		<component base="cap" yOffset="245"/>
		<contour>
			<point x="0" y="555" type="line"/>
			<point x="0" y="445" type="line"/>
			<point x="400" y="445" type="line"/>
			<point x="400" y="555" type="line"/>
		</contour>
	</outline>
</glyph>
<glyph name="_30.center" format="2">
  <advance width="400"/>
  <unicode hex="041E"/>
  
  <outline>
    <component base="cap" xOffset="0" yOffset="350" />
    <component base="cap" xOffset="0" yOffset="250" />
    <contour>
      <point x="0" y="550" type="line"/>
      <point x="0" y="450" type="line"/>
      <point x="400" y="450" type="line"/>
      <point x="400" y="550" type="line"/>
    </contour>
  </outline>
</glyph>
<glyph name="_31.center" format="2">
  <advance width="400"/>
  <unicode hex="041F"/>
  
  <outline>
    <component base="cap" xOffset="0" yOffset="345" />
    <component base="cap" xOffset="0" yOffset="255" />
    <contour>
      <point x="0" y="545" type="line"/>
      <point x="0" y="455" type="line"/>
      <point x="400" y="455" type="line"/>
      <point x="400" y="545" type="line"/>
    </contour>
  </outline>
</glyph>
<glyph name="_31.center" format="2">
	<unicode hex="041F"/>
	<advance width="400"/>
	<outline>
		<component base="cap" yOffset="345"/>
		<component base="cap" yOffset="255"/>
		<contour>
			<point x="0" y="545" type="line"/>
			<point x="0" y="455" type="line"/>
			<point x="400" y="455" type="line"/>
			<point x="400" y="545" type="line"/>
		</contour>
	</outline>
</glyph>
<glyph name="_33.center" format="2">
	<unicode hex="0421"/>
	<advance width="400"/>
	<outline>
		<component base="cap" yOffset="335"/>
		<component base="cap" yOffset="265"/>
		<contour>
			<point x="0" y="535" type="line"/>
			<point x="0" y="465" type="line"/>
			<point x="400" y="465" type="line"/>
			<point x="400" y="535" type="line"/>
		</contour>
	</outline>
</glyph>
<glyph name="_34.center" format="2">
  <advance width="400"/>
  <unicode hex="0422"/>
  
  <outline>
    <component base="cap" xOffset="0" yOffset="330" />
    <component base="cap" xOffset="0" yOffset="270" />
    <contour>
      <point x="0" y="530" type="line"/>
      <point x="0" y="470" type="line"/>
      <point x="400" y="470" type="line"/>
      <point x="400" y="530" type="line"/>
    </contour>
  </outline>
</glyph>
<glyph name="_37.center" format="2">
  <advance width="400"/>
  <unicode hex="0425"/>
  
  <outline>
    <component base="cap" xOffset="0" yOffset="315" />
    <component base="cap" xOffset="0" yOffset="285" />
    <contour>
      <point x="0" y="515" type="line"/>
      <point x="0" y="485" type="line"/>
      <point x="400" y="485" type="line"/>
      <point x="400" y="515" type="line"/>
    </contour>
  </outline>
</glyph>
<glyph name="_39.center" format="2">
	<unicode hex="0427"/>
	<advance width="400"/>
	<outline>
		<component base="cap" yOffset="305"/>
		<component base="cap" yOffset="295"/>
		<contour>
			<point x="0" y="505" type="line"/>
			<point x="0" y="495" type="line"/>
			<point x="400" y="495" type="line"/>
			<point x="400" y="505" type="line"/>
		</contour>
	</outline>
</glyph>
<glyph name="_42.center" format="2">
  <advance width="400"/>
  <unicode hex="042A"/>
  
  <outline>
    <component base="cap" xOffset="0" yOffset="290" />
    <component base="cap" xOffset="0" yOffset="310" />
    <contour>
      <point x="0" y="490" type="line"/>
      <point x="0" y="510" type="line"/>
      <point x="400" y="510" type="line"/>
      <point x="400" y="490" type="line"/>
    </contour>
  </outline>
</glyph>
<glyph name="_44.center" format="2">
	<unicode hex="042C"/>
	<advance width="400"/>
	<outline>
		<component base="cap" yOffset="280"/>
		<component base="cap" yOffset="320"/>
		<contour>
			<point x="0" y="480" type="line"/>
			<point x="0" y="520" type="line"/>
			<point x="400" y="520" type="line"/>
			<point x="400" y="480" type="line"/>
		</contour>
	</outline>
</glyph>
<glyph name="_45.center" format="2">
	<unicode hex="042D"/>
	<advance width="400"/>
	<outline>
		<component base="cap" yOffset="275"/>
		<component base="cap" yOffset="325"/>
		<contour>
			<point x="0" y="475" type="line"/>
			<point x="0" y="525" type="line"/>
			<point x="400" y="525" type="line"/>
			<point x="400" y="475" type="line"/>
		</contour>
	</outline>
</glyph>
<glyph name="_49.center" format="2">
	<unicode hex="0431"/>
	<advance width="400"/>
	<outline>
		<component base="cap" yOffset="255"/>
		<component base="cap" yOffset="345"/>
		<contour>
			<point x="0" y="455" type="line"/>
			<point x="0" y="545" type="line"/>
			<point x="400" y="545" type="line"/>
			<point x="400" y="455" type="line"/>
		</contour>
	</outline>
</glyph>
<glyph name="_50.center" format="2">
	<unicode hex="0432"/>
	<advance width="400"/>
	<outline>
		<component base="cap" yOffset="250"/>
		<component base="cap" yOffset="350"/>
		<contour>
			<point x="0" y="450" type="line"/>
			<point x="0" y="550" type="line"/>
			<point x="400" y="550" type="line"/>
			<point x="400" y="450" type="line"/>
		</contour>
	</outline>
</glyph>
<glyph name="_53.center" format="2">
	<unicode hex="0435"/>
	<advance width="400"/>
	<outline>
		<component base="cap" yOffset="235"/>
		<component base="cap" yOffset="365"/>
		<contour>
			<point x="0" y="435" type="line"/>
			<point x="0" y="565" type="line"/>
			<point x="400" y="565" type="line"/>
			<point x="400" y="435" type="line"/>
		</contour>
	</outline>
</glyph>
<glyph name="_56.center" format="2">
	<unicode hex="0438"/>
	<advance width="400"/>
	<outline>
		<component base="cap" yOffset="220"/>
		<component base="cap" yOffset="380"/>
		<contour>
			<point x="0" y="420" type="line"/>
			<point x="0" y="580" type="line"/>
			<point x="400" y="580" type="line"/>
			<point x="400" y="420" type="line"/>
		</contour>
	</outline>
</glyph>
<glyph name="_57.center" format="2">
  <advance width="400"/>
  <unicode hex="0439"/>
  
  <outline>
    <component base="cap" xOffset="0" yOffset="215" />
    <component base="cap" xOffset="0" yOffset="385" />
    <contour>
      <point x="0" y="415" type="line"/>
      <point x="0" y="585" type="line"/>
      <point x="400" y="585" type="line"/>
      <point x="400" y="415" type="line"/>
    </contour>
  </outline>
</glyph>
<glyph name="_58.center" format="2">
  <advance width="400"/>
  <unicode hex="043A"/>
  
  <outline>
    <component base="cap" xOffset="0" yOffset="210" />
    <component base="cap" xOffset="0" yOffset="390" />
    <contour>
      <point x="0" y="410" type="line"/>
      <point x="0" y="590" type="line"/>
      <point x="400" y="590" type="line"/>
      <point x="400" y="410" type="line"/>
    </contour>
  </outline>
</glyph>
<glyph name="_62.center" format="2">
	<unicode hex="043E"/>
	<advance width="400"/>
	<outline>
		<component base="cap" yOffset="190"/>
		<component base="cap" yOffset="410"/>
		<contour>
			<point x="0" y="390" type="line"/>
			<point x="0" y="610" type="line"/>
			<point x="400" y="610" type="line"/>
			<point x="400" y="390" type="line"/>
		</contour>
	</outline>
</glyph>
<glyph name="_63.center" format="2">
	<unicode hex="043F"/>
	<advance width="400"/>
	<outline>
		<component base="cap" yOffset="185"/>
		<component base="cap" yOffset="415"/>
		<contour>
			<point x="0" y="385" type="line"/>
			<point x="0" y="615" type="line"/>
			<point x="400" y="615" type="line"/>
			<point x="400" y="385" type="line"/>
		</contour>
	</outline>
</glyph>
<glyph name="_72.center" format="2">
	<unicode hex="0448"/>
	<advance width="400"/>
	<outline>
		<component base="cap" yOffset="140"/>
		<component base="cap" yOffset="460"/>
		<contour>
			<point x="0" y="340" type="line"/>
			<point x="0" y="660" type="line"/>
			<point x="400" y="660" type="line"/>
			<point x="400" y="340" type="line"/>
		</contour>
	</outline>
</glyph>
<glyph name="_73.center" format="2">
	<unicode hex="0449"/>
	<advance width="400"/>
	<outline>
		<component base="cap" yOffset="135"/>
		<component base="cap" yOffset="465"/>
		<contour>
			<point x="0" y="335" type="line"/>
			<point x="0" y="665" type="line"/>
			<point x="400" y="665" type="line"/>
			<point x="400" y="335" type="line"/>
		</contour>
	</outline>
</glyph>
<glyph name="_78.center" format="2">
  <advance width="400"/>
  <unicode hex="044E"/>
  
  <outline>
    <component base="cap" xOffset="0" yOffset="110" />
    <component base="cap" xOffset="0" yOffset="490" />
    <contour>
      <point x="0" y="310" type="line"/>
      <point x="0" y="690" type="line"/>
      <point x="400" y="690" type="line"/>
      <point x="400" y="310" type="line"/>
    </contour>
  </outline>
</glyph>
<glyph name="_79.center" format="2">
	<unicode hex="044F"/>
	<advance width="400"/>
	<outline>
		<component base="cap" yOffset="105"/>
		<component base="cap" yOffset="495"/>
		<contour>
			<point x="0" y="305" type="line"/>
			<point x="0" y="695" type="line"/>
			<point x="400" y="695" type="line"/>
			<point x="400" y="305" type="line"/>
		</contour>
	</outline>
</glyph>
<glyph name="_80.center" format="2">
	<unicode hex="0450"/>
	<advance width="400"/>
	<outline>
		<component base="cap" yOffset="100"/>
		<component base="cap" yOffset="500"/>
		<contour>
			<point x="0" y="300" type="line"/>
			<point x="0" y="700" type="line"/>
			<point x="400" y="700" type="line"/>
			<point x="400" y="300" type="line"/>
		</contour>
	</outline>
</glyph>
<glyph name="_81.center" format="2">
  <advance width="400"/>
  <unicode hex="0451"/>
  
  <outline>
    <component base="cap" xOffset="0" yOffset="95" />
    <component base="cap" xOffset="0" yOffset="505" />
    <contour>
      <point x="0" y="295" type="line"/>
      <point x="0" y="705" type="line"/>
      <point x="400" y="705" type="line"/>
      <point x="400" y="295" type="line"/>
    </contour>
  </outline>
</glyph>
<glyph name="_82.center" format="2">
	<unicode hex="0452"/>
	<advance width="400"/>
	<outline>
		<component base="cap" yOffset="90"/>
		<component base="cap" yOffset="510"/>
		<contour>
			<point x="0" y="290" type="line"/>
			<point x="0" y="710" type="line"/>
			<point x="400" y="710" type="line"/>
			<point x="400" y="290" type="line"/>
		</contour>
	</outline>
</glyph>
<glyph name="_85.center" format="2">
	<unicode hex="0455"/>
	<advance width="400"/>
	<outline>
		<component base="cap" yOffset="75"/>
		<component base="cap" yOffset="525"/>
		<contour>
			<point x="0" y="275" type="line"/>
			<point x="0" y="725" type="line"/>
			<point x="400" y="725" type="line"/>
			<point x="400" y="275" type="line"/>
		</contour>
	</outline>
</glyph>
<glyph name="_86.center" format="2">
	<unicode hex="0456"/>
	<advance width="400"/>
	<outline>
		<component base="cap" yOffset="70"/>
		<component base="cap" yOffset="530"/>
		<contour>
			<point x="0" y="270" type="line"/>
			<point x="0" y="730" type="line"/>
			<point x="400" y="730" type="line"/>
			<point x="400" y="270" type="line"/>
		</contour>
	</outline>
</glyph>
<glyph name="_87.center" format="2">
  <advance width="400"/>
  <unicode hex="0457"/>
  
  <outline>
    <component base="cap" xOffset="0" yOffset="65" />
    <component base="cap" xOffset="0" yOffset="535" />
    <contour>
      <point x="0" y="265" type="line"/>
      <point x="0" y="735" type="line"/>
      <point x="400" y="735" type="line"/>
      <point x="400" y="265" type="line"/>
    </contour>
  </outline>
</glyph>
<glyph name="_89.center" format="2">
	<unicode hex="0459"/>
	<advance width="400"/>
	<outline>
		<component base="cap" yOffset="55"/>
		<component base="cap" yOffset="545"/>
		<contour>
			<point x="0" y="255" type="line"/>
			<point x="0" y="745" type="line"/>
			<point x="400" y="745" type="line"/>
			<point x="400" y="255" type="line"/>
		</contour>
	</outline>
</glyph>
<glyph name="_96.center" format="2">
  <advance width="400"/>
  <unicode hex="0460"/>
  
  <outline>
    <component base="cap" xOffset="0" yOffset="20" />
    <component base="cap" xOffset="0" yOffset="580" />
    <contour>
      <point x="0" y="220" type="line"/>
      <point x="0" y="780" type="line"/>
      <point x="400" y="780" type="line"/>
      <point x="400" y="220" type="line"/>
    </contour>
  </outline>
</glyph>
<glyph name="_101.center" format="2">
  <advance width="400"/>
  <unicode hex="0465"/>
  
  <outline>
    <component base="cap" xOffset="0" yOffset="-5" />
    <component base="cap" xOffset="0" yOffset="605" />
    <contour>
      <point x="0" y="195" type="line"/>
      <point x="0" y="805" type="line"/>
      <point x="400" y="805" type="line"/>
      <point x="400" y="195" type="line"/>
    </contour>
  </outline>
</glyph>
<glyph name="_102.center" format="2">
	<unicode hex="0466"/>
	<advance width="400"/>
	<outline>
		<component base="cap" yOffset="-10"/>
		<component base="cap" yOffset="610"/>
		<contour>
			<point x="0" y="190" type="line"/>
			<point x="0" y="810" type="line"/>
			<point x="400" y="810" type="line"/>
			<point x="400" y="190" type="line"/>
		</contour>
	</outline>
</glyph>
<glyph name="_103.center" format="2">
	<unicode hex="0467"/>
	<advance width="400"/>
	<outline>
		<component base="cap" yOffset="-15"/>
		<component base="cap" yOffset="615"/>
		<contour>
			<point x="0" y="185" type="line"/>
			<point x="0" y="815" type="line"/>
			<point x="400" y="815" type="line"/>
			<point x="400" y="185" type="line"/>
		</contour>
	</outline>
</glyph>
<glyph name="_13.clip" format="2">
  <advance width="400"/>
  
  <outline>
    <contour>
        <point x="0.000" y="100.750"/>

        <point x="29.250" y="130.000"/>
        <point x="65.000" y="130.000" type="curve" smooth="yes"/>
        <point x="335.000" y="130.000" type="line"/>
        <point x="370.750" y="130.000"/>

        <point x="400.000" y="100.750"/>
        <point x="400.000" y="65.000" type="curve" smooth="yes"/>
        <point x="400.000" y="65.000" type="line"/>
        <point x="400.000" y="29.250"/>

        <point x="370.750" y="0.000"/>
        <point x="335.000" y="0.000" type="curve" smooth="yes"/>
        <point x="65.000" y="0.000" type="line"/>
        <point x="29.250" y="0.000"/>

        <point x="0.000" y="29.250"/>
        <point x="0.000" y="65.000" type="curve" smooth="yes"/>
        <point x="0.000" y="65.000" type="line"/>
    </contour>
  </outline>
</glyph>
<glyph name="_22.clip.center" format="2">
  <advance width="400"/>
  
  <outline>
    <contour>
        <point x="0.000" y="560.500"/>

        <point x="49.500" y="610.000"/>
        <point x="110.000" y="610.000" type="curve" smooth="yes"/>
        <point x="290.000" y="610.000" type="line"/>
        <point x="350.500" y="610.000"/>

        <point x="400.000" y="560.500"/>
        <point x="400.000" y="500.000" type="curve" smooth="yes"/>
        <point x="400.000" y="500.000" type="line"/>
        <point x="400.000" y="439.500"/>

        <point x="350.500" y="390.000"/>
        <point x="290.000" y="390.000" type="curve" smooth="yes"/>
        <point x="110.000" y="390.000" type="line"/>
        <point x="49.500" y="390.000"/>

        <point x="0.000" y="439.500"/>
        <point x="0.000" y="500.000" type="curve" smooth="yes"/>
        <point x="0.000" y="500.000" type="line"/>
    </contour>
  </outline>
</glyph>
<glyph name="_25.clip" format="2">
  <advance width="400"/>
  
  <outline>
    <contour>
        <point x="0.000" y="193.750"/>

        <point x="56.250" y="250.000"/>
        <point x="125.000" y="250.000" type="curve" smooth="yes"/>
        <point x="275.000" y="250.000" type="line"/>
        <point x="343.750" y="250.000"/>

        <point x="400.000" y="193.750"/>
        <point x="400.000" y="125.000" type="curve" smooth="yes"/>
        <point x="400.000" y="125.000" type="line"/>
        <point x="400.000" y="56.250"/>

        <point x="343.750" y="0.000"/>
        <point x="275.000" y="0.000" type="curve" smooth="yes"/>
        <point x="125.000" y="0.000" type="line"/>
        <point x="56.250" y="0.000"/>

        <point x="0.000" y="56.250"/>
        <point x="0.000" y="125.000" type="curve" smooth="yes"/>
        <point x="0.000" y="125.000" type="line"/>
    </contour>
  </outline>
</glyph>
<glyph name="_31.clip" format="2">
  <advance width="400"/>
  
  <outline>
    <contour>
        <point x="0.000" y="240.250"/>

        <point x="69.750" y="310.000"/>
        <point x="155.000" y="310.000" type="curve" smooth="yes"/>
        <point x="245.000" y="310.000" type="line"/>
        <point x="330.250" y="310.000"/>

        <point x="400.000" y="240.250"/>
        <point x="400.000" y="155.000" type="curve" smooth="yes"/>
        <point x="400.000" y="155.000" type="line"/>
        <point x="400.000" y="69.750"/>

        <point x="330.250" y="0.000"/>
        <point x="245.000" y="0.000" type="curve" smooth="yes"/>
        <point x="155.000" y="0.000" type="line"/>
        <point x="69.750" y="0.000"/>

        <point x="0.000" y="69.750"/>
        <point x="0.000" y="155.000" type="curve" smooth="yes"/>
        <point x="0.000" y="155.000" type="line"/>
    </contour>
  </outline>
</glyph>
<glyph name="_32.clip.center" format="2">
  <advance width="400"/>
  
  <outline>
    <contour>
        <point x="0.000" y="588.000"/>

        <point x="72.000" y="660.000"/>
        <point x="160.000" y="660.000" type="curve" smooth="yes"/>
        <point x="240.000" y="660.000" type="line"/>
        <point x="328.000" y="660.000"/>

        <point x="400.000" y="588.000"/>
        <point x="400.000" y="500.000" type="curve" smooth="yes"/>
        <point x="400.000" y="500.000" type="line"/>
        <point x="400.000" y="412.000"/>

        <point x="328.000" y="340.000"/>
        <point x="240.000" y="340.000" type="curve" smooth="yes"/>
        <point x="160.000" y="340.000" type="line"/>
        <point x="72.000" y="340.000"/>

        <point x="0.000" y="412.000"/>
        <point x="0.000" y="500.000" type="curve" smooth="yes"/>
        <point x="0.000" y="500.000" type="line"/>
    </contour>
  </outline>
</glyph>
<glyph name="_37.clip" format="2">
  <advance width="400"/>
  
  <outline>
    <contour>
        <point x="0.000" y="286.750"/>

        <point x="83.250" y="370.000"/>
        <point x="185.000" y="370.000" type="curve" smooth="yes"/>
        <point x="215.000" y="370.000" type="line"/>
        <point x="316.750" y="370.000"/>

        <point x="400.000" y="286.750"/>
        <point x="400.000" y="185.000" type="curve" smooth="yes"/>
        <point x="400.000" y="185.000" type="line"/>
        <point x="400.000" y="83.250"/>

        <point x="316.750" y="0.000"/>
        <point x="215.000" y="0.000" type="curve" smooth="yes"/>
        <point x="185.000" y="0.000" type="line"/>
        <point x="83.250" y="0.000"/>

        <point x="0.000" y="83.250"/>
        <point x="0.000" y="185.000" type="curve" smooth="yes"/>
        <point x="0.000" y="185.000" type="line"/>
    </contour>
  </outline>
</glyph>
<glyph name="_39.clip" format="2">
  <advance width="400"/>
  
  <outline>
    <contour>
        <point x="0.000" y="302.250"/>

        <point x="87.750" y="390.000"/>
        <point x="195.000" y="390.000" type="curve" smooth="yes"/>
        <point x="205.000" y="390.000" type="line"/>
        <point x="312.250" y="390.000"/>

        <point x="400.000" y="302.250"/>
        <point x="400.000" y="195.000" type="curve" smooth="yes"/>
        <point x="400.000" y="195.000" type="line"/>
        <point x="400.000" y="87.750"/>

        <point x="312.250" y="0.000"/>
        <point x="205.000" y="0.000" type="curve" smooth="yes"/>
        <point x="195.000" y="0.000" type="line"/>
        <point x="87.750" y="0.000"/>

        <point x="0.000" y="87.750"/>
        <point x="0.000" y="195.000" type="curve" smooth="yes"/>
        <point x="0.000" y="195.000" type="line"/>
    </contour>
  </outline>
</glyph>
<glyph name="_8.clip" format="2">
  <advance width="400"/>
  
  <outline>
    <contour>
        <point x="0.000" y="62.000"/>

        <point x="18.000" y="80.000"/>
        <point x="40.000" y="80.000" type="curve" smooth="yes"/>
        <point x="360.000" y="80.000" type="line"/>
        <point x="382.000" y="80.000"/>

        <point x="400.000" y="62.000"/>
        <point x="400.000" y="40.000" type="curve" smooth="yes"/>
        <point x="400.000" y="40.000" type="line"/>
        <point x="400.000" y="18.000"/>

        <point x="382.000" y="0.000"/>
        <point x="360.000" y="0.000" type="curve" smooth="yes"/>
        <point x="40.000" y="0.000" type="line"/>
        <point x="18.000" y="0.000"/>

        <point x="0.000" y="18.000"/>
        <point x="0.000" y="40.000" type="curve" smooth="yes"/>
        <point x="0.000" y="40.000" type="line"/>
    </contour>
  </outline>
</glyph>
<glyph name="_1.clip.center" format="2">
	<advance width="400"/>
	<outline>
		<contour>
			<point x="0" y="502.75"/>
			<point x="2.25" y="505"/>
			<point x="5" y="505" type="curve" smooth="yes"/>
			<point x="395" y="505" type="line"/>
			<point x="397.75" y="505"/>
			<point x="400" y="502.75"/>
			<point x="400" y="500" type="curve" smooth="yes"/>
			<point x="400" y="500" type="line"/>
			<point x="400" y="497.25"/>
			<point x="397.75" y="495"/>
			<point x="395" y="495" type="curve" smooth="yes"/>
			<point x="5" y="495" type="line"/>
			<point x="2.25" y="495"/>
			<point x="0" y="497.25"/>
			<point x="0" y="500" type="curve" smooth="yes"/>
			<point x="0" y="500" type="line"/>
		</contour>
	</outline>
</glyph>
<glyph name="_1.clip" format="2">
	<advance width="400"/>
	<outline>
		<contour>
			<point x="0" y="7.75"/>
			<point x="2.25" y="10"/>
			<point x="5" y="10" type="curve" smooth="yes"/>
			<point x="395" y="10" type="line"/>
			<point x="397.75" y="10"/>
			<point x="400" y="7.75"/>
			<point x="400" y="5" type="curve" smooth="yes"/>
			<point x="400" y="5" type="line"/>
			<point x="400" y="2.25"/>
			<point x="397.75" y="0"/>
			<point x="395" y="0" type="curve" smooth="yes"/>
			<point x="5" y="0" type="line"/>
			<point x="2.25" y="0"/>
			<point x="0" y="2.25"/>
			<point x="0" y="5" type="curve" smooth="yes"/>
			<point x="0" y="5" type="line"/>
		</contour>
	</outline>
</glyph>
<glyph name="_10.clip" format="2">
  <advance width="400"/>
  
  <outline>
    <contour>
        <point x="0" y="77.5"/>

        <point x="22.499999999999996" y="100"/>
        <point x="50" y="100" type="curve" smooth="yes"/>
        <point x="350" y="100" type="line"/>
        <point x="377.5" y="100"/>

        <point x="400" y="77.5"/>
        <point x="400" y="50" type="curve" smooth="yes"/>
        <point x="400" y="50" type="line"/>
        <point x="400" y="22.499999999999996"/>

        <point x="377.5" y="0"/>
        <point x="350" y="0" type="curve" smooth="yes"/>
        <point x="50" y="0" type="line"/>
        <point x="22.499999999999996" y="0"/>

        <point x="0" y="22.499999999999996"/>
        <point x="0" y="50" type="curve" smooth="yes"/>
        <point x="0" y="50" type="line"/>
    </contour>
  </outline>
</glyph>
<glyph name="_11.clip.center" format="2">
  <advance width="400"/>
  
  <outline>
    <contour>
        <point x="0" y="530.25"/>

        <point x="24.749999999999996" y="555"/>
        <point x="55" y="555" type="curve" smooth="yes"/>
        <point x="345" y="555" type="line"/>
        <point x="375.25" y="555"/>

        <point x="400" y="530.25"/>
        <point x="400" y="500" type="curve" smooth="yes"/>
        <point x="400" y="500" type="line"/>
        <point x="400" y="469.75"/>

        <point x="375.25" y="445"/>
        <point x="345" y="445" type="curve" smooth="yes"/>
        <point x="55" y="445" type="line"/>
        <point x="24.749999999999996" y="445"/>

        <point x="0" y="469.75"/>
        <point x="0" y="500" type="curve" smooth="yes"/>
        <point x="0" y="500" type="line"/>
    </contour>
  </outline>
</glyph>
<glyph name="_11.clip" format="2">
  <advance width="400"/>
  
  <outline>
    <contour>
        <point x="0" y="85.25"/>

        <point x="24.749999999999996" y="110"/>
        <point x="55" y="110" type="curve" smooth="yes"/>
        <point x="345" y="110" type="line"/>
        <point x="375.25" y="110"/>

        <point x="400" y="85.25"/>
        <point x="400" y="55" type="curve" smooth="yes"/>
        <point x="400" y="55" type="line"/>
        <point x="400" y="24.749999999999996"/>

        <point x="375.25" y="0"/>
        <point x="345" y="0" type="curve" smooth="yes"/>
        <point x="55" y="0" type="line"/>
        <point x="24.749999999999996" y="0"/>

        <point x="0" y="24.749999999999996"/>
        <point x="0" y="55" type="curve" smooth="yes"/>
        <point x="0" y="55" type="line"/>
    </contour>
  </outline>
</glyph>
<glyph name="_12.clip.center" format="2">
  <advance width="400"/>
  
  <outline>
    <contour>
        <point x="0" y="533"/>

        <point x="26.999999999999996" y="560"/>
        <point x="60" y="560" type="curve" smooth="yes"/>
        <point x="340" y="560" type="line"/>
        <point x="373" y="560"/>

        <point x="400" y="533"/>
        <point x="400" y="500" type="curve" smooth="yes"/>
        <point x="400" y="500" type="line"/>
        <point x="400" y="467"/>

        <point x="373" y="440"/>
        <point x="340" y="440" type="curve" smooth="yes"/>
        <point x="60" y="440" type="line"/>
        <point x="26.999999999999996" y="440"/>

        <point x="0" y="467"/>
        <point x="0" y="500" type="curve" smooth="yes"/>
        <point x="0" y="500" type="line"/>
    </contour>
  </outline>
</glyph>
<glyph name="_15.clip.center" format="2">
	<advance width="400"/>
	<outline>
		<contour>
			<point x="0" y="541.25"/>
			<point x="33.75" y="575"/>
			<point x="75" y="575" type="curve" smooth="yes"/>
			<point x="325" y="575" type="line"/>
			<point x="366.25" y="575"/>
			<point x="400" y="541.25"/>
			<point x="400" y="500" type="curve" smooth="yes"/>
			<point x="400" y="500" type="line"/>
			<point x="400" y="458.75"/>
			<point x="366.25" y="425"/>
			<point x="325" y="425" type="curve" smooth="yes"/>
			<point x="75" y="425" type="line"/>
			<point x="33.75" y="425"/>
			<point x="0" y="458.75"/>
			<point x="0" y="500" type="curve" smooth="yes"/>
			<point x="0" y="500" type="line"/>
		</contour>
	</outline>
</glyph>
<glyph name="_15.clip" format="2">
  <advance width="400"/>
  
  <outline>
    <contour>
        <point x="0" y="116.25"/>

        <point x="33.75" y="150"/>
        <point x="75" y="150" type="curve" smooth="yes"/>
        <point x="325" y="150" type="line"/>
        <point x="366.25" y="150"/>

        <point x="400" y="116.25"/>
        <point x="400" y="75" type="curve" smooth="yes"/>
        <point x="400" y="75" type="line"/>
        <point x="400" y="33.75"/>

        <point x="366.25" y="0"/>
        <point x="325" y="0" type="curve" smooth="yes"/>
        <point x="75" y="0" type="line"/>
        <point x="33.75" y="0"/>

        <point x="0" y="33.75"/>
        <point x="0" y="75" type="curve" smooth="yes"/>
        <point x="0" y="75" type="line"/>
    </contour>
  </outline>
</glyph>
<glyph name="_17.clip.center" format="2">
	<advance width="400"/>
	<outline>
		<contour>
			<point x="0" y="546.75"/>
			<point x="38.25" y="585"/>
			<point x="85" y="585" type="curve" smooth="yes"/>
			<point x="315" y="585" type="line"/>
			<point x="361.75" y="585"/>
			<point x="400" y="546.75"/>
			<point x="400" y="500" type="curve" smooth="yes"/>
			<point x="400" y="500" type="line"/>
			<point x="400" y="453.25"/>
			<point x="361.75" y="415"/>
			<point x="315" y="415" type="curve" smooth="yes"/>
			<point x="85" y="415" type="line"/>
			<point x="38.25" y="415"/>
			<point x="0" y="453.25"/>
			<point x="0" y="500" type="curve" smooth="yes"/>
			<point x="0" y="500" type="line"/>
		</contour>
	</outline>
</glyph>
<glyph name="_17.clip" format="2">
  <advance width="400"/>
  
  <outline>
    <contour>
        <point x="0" y="131.75"/>

        <point x="38.24999999999999" y="170"/>
        <point x="85" y="170" type="curve" smooth="yes"/>
        <point x="315" y="170" type="line"/>
        <point x="361.75" y="170"/>

        <point x="400" y="131.75"/>
        <point x="400" y="85" type="curve" smooth="yes"/>
        <point x="400" y="85" type="line"/>
        <point x="400" y="38.24999999999999"/>

        <point x="361.75" y="0"/>
        <point x="315" y="0" type="curve" smooth="yes"/>
        <point x="85" y="0" type="line"/>
        <point x="38.24999999999999" y="0"/>

        <point x="0" y="38.24999999999999"/>
        <point x="0" y="85" type="curve" smooth="yes"/>
        <point x="0" y="85" type="line"/>
    </contour>
  </outline>
</glyph>
<glyph name="_18.clip.center" format="2">
	<advance width="400"/>
	<outline>
		<contour>
			<point x="0" y="549.5"/>
			<point x="40.5" y="590"/>
			<point x="90" y="590" type="curve" smooth="yes"/>
			<point x="310" y="590" type="line"/>
			<point x="359.5" y="590"/>
			<point x="400" y="549.5"/>
			<point x="400" y="500" type="curve" smooth="yes"/>
			<point x="400" y="500" type="line"/>
			<point x="400" y="450.5"/>
			<point x="359.5" y="410"/>
			<point x="310" y="410" type="curve" smooth="yes"/>
			<point x="90" y="410" type="line"/>
			<point x="40.5" y="410"/>
			<point x="0" y="450.5"/>
			<point x="0" y="500" type="curve" smooth="yes"/>
			<point x="0" y="500" type="line"/>
		</contour>
	</outline>
</glyph>
<glyph name="_2.clip.center" format="2">
  <advance width="400"/>
  
  <outline>
    <contour>
        <point x="0.000" y="505.500"/>

        <point x="4.500" y="510.000"/>
        <point x="10.000" y="510.000" type="curve" smooth="yes"/>
        <point x="390.000" y="510.000" type="line"/>
        <point x="395.500" y="510.000"/>

        <point x="400.000" y="505.500"/>
        <point x="400.000" y="500.000" type="curve" smooth="yes"/>
        <point x="400.000" y="500.000" type="line"/>
        <point x="400.000" y="494.500"/>

        <point x="395.500" y="490.000"/>
        <point x="390.000" y="490.000" type="curve" smooth="yes"/>
        <point x="10.000" y="490.000" type="line"/>
        <point x="4.500" y="490.000"/>

        <point x="0.000" y="494.500"/>
        <point x="0.000" y="500.000" type="curve" smooth="yes"/>
        <point x="0.000" y="500.000" type="line"/>
    </contour>
  </outline>
</glyph>
<glyph name="_20.clip.center" format="2">
  <advance width="400"/>
  
  <outline>
    <contour>
        <point x="0" y="555"/>

        <point x="44.99999999999999" y="600"/>
        <point x="100" y="600" type="curve" smooth="yes"/>
        <point x="300" y="600" type="line"/>
        <point x="355" y="600"/>

        <point x="400" y="555"/>
        <point x="400" y="500" type="curve" smooth="yes"/>
        <point x="400" y="500" type="line"/>
        <point x="400" y="445"/>

        <point x="355" y="400"/>
        <point x="300" y="400" type="curve" smooth="yes"/>
        <point x="100" y="400" type="line"/>
        <point x="44.99999999999999" y="400"/>

        <point x="0" y="445"/>
        <point x="0" y="500" type="curve" smooth="yes"/>
        <point x="0" y="500" type="line"/>
    </contour>
  </outline>
</glyph>
<glyph name="_21.clip" format="2">
  <advance width="400"/>
  
  <outline>
    <contour>
        <point x="0" y="162.75"/>

        <point x="47.24999999999999" y="210"/>
        <point x="105" y="210" type="curve" smooth="yes"/>
        <point x="295" y="210" type="line"/>
        <point x="352.75" y="210"/>

        <point x="400" y="162.75"/>
        <point x="400" y="105" type="curve" smooth="yes"/>
        <point x="400" y="105" type="line"/>
        <point x="400" y="47.24999999999999"/>

        <point x="352.75" y="0"/>
        <point x="295" y="0" type="curve" smooth="yes"/>
        <point x="105" y="0" type="line"/>
        <point x="47.24999999999999" y="0"/>

        <point x="0" y="47.24999999999999"/>
        <point x="0" y="105" type="curve" smooth="yes"/>
        <point x="0" y="105" type="line"/>
    </contour>
  </outline>
</glyph>
<glyph name="_22.clip.center" format="2">
  <advance width="400"/>
  
  <outline>
    <contour>
        <point x="0" y="560.5"/>

        <point x="49.49999999999999" y="610"/>
        <point x="110" y="610" type="curve" smooth="yes"/>
        <point x="290" y="610" type="line"/>
        <point x="350.5" y="610"/>

        <point x="400" y="560.5"/>
        <point x="400" y="500" type="curve" smooth="yes"/>
        <point x="400" y="500" type="line"/>
        <point x="400" y="439.5"/>

        <point x="350.5" y="390"/>
        <point x="290" y="390" type="curve" smooth="yes"/>
        <point x="110" y="390" type="line"/>
        <point x="49.49999999999999" y="390"/>

        <point x="0" y="439.5"/>
        <point x="0" y="500" type="curve" smooth="yes"/>
        <point x="0" y="500" type="line"/>
    </contour>
  </outline>
</glyph>
<glyph name="_22.clip" format="2">
  <advance width="400"/>
  
  <outline>
    <contour>
        <point x="0" y="170.5"/>

        <point x="49.49999999999999" y="220"/>
        <point x="110" y="220" type="curve" smooth="yes"/>
        <point x="290" y="220" type="line"/>
        <point x="350.5" y="220"/>

        <point x="400" y="170.5"/>
        <point x="400" y="110" type="curve" smooth="yes"/>
        <point x="400" y="110" type="line"/>
        <point x="400" y="49.49999999999999"/>

        <point x="350.5" y="0"/>
        <point x="290" y="0" type="curve" smooth="yes"/>
        <point x="110" y="0" type="line"/>
        <point x="49.49999999999999" y="0"/>

        <point x="0" y="49.49999999999999"/>
        <point x="0" y="110" type="curve" smooth="yes"/>
        <point x="0" y="110" type="line"/>
    </contour>
  </outline>
</glyph>
<glyph name="_23.clip.center" format="2">
  <advance width="400"/>
  
  <outline>
    <contour>
        <point x="0" y="563.25"/>

        <point x="51.74999999999999" y="615"/>
        <point x="115" y="615" type="curve" smooth="yes"/>
        <point x="285" y="615" type="line"/>
        <point x="348.25" y="615"/>

        <point x="400" y="563.25"/>
        <point x="400" y="500" type="curve" smooth="yes"/>
        <point x="400" y="500" type="line"/>
        <point x="400" y="436.75"/>

        <point x="348.25" y="385"/>
        <point x="285" y="385" type="curve" smooth="yes"/>
        <point x="115" y="385" type="line"/>
        <point x="51.74999999999999" y="385"/>

        <point x="0" y="436.75"/>
        <point x="0" y="500" type="curve" smooth="yes"/>
        <point x="0" y="500" type="line"/>
    </contour>
  </outline>
</glyph>
<glyph name="_23.clip" format="2">
  <advance width="400"/>
  
  <outline>
    <contour>
        <point x="0" y="178.25"/>

        <point x="51.74999999999999" y="230"/>
        <point x="115" y="230" type="curve" smooth="yes"/>
        <point x="285" y="230" type="line"/>
        <point x="348.25" y="230"/>

        <point x="400" y="178.25"/>
        <point x="400" y="115" type="curve" smooth="yes"/>
        <point x="400" y="115" type="line"/>
        <point x="400" y="51.74999999999999"/>

        <point x="348.25" y="0"/>
        <point x="285" y="0" type="curve" smooth="yes"/>
        <point x="115" y="0" type="line"/>
        <point x="51.74999999999999" y="0"/>

        <point x="0" y="51.74999999999999"/>
        <point x="0" y="115" type="curve" smooth="yes"/>
        <point x="0" y="115" type="line"/>
    </contour>
  </outline>
</glyph>
<glyph name="_28.clip" format="2">
  <advance width="400"/>
  
  <outline>
    <contour>
        <point x="0" y="217"/>

        <point x="62.99999999999999" y="280"/>
        <point x="140" y="280" type="curve" smooth="yes"/>
        <point x="260" y="280" type="line"/>
        <point x="337" y="280"/>

        <point x="400" y="217"/>
        <point x="400" y="140" type="curve" smooth="yes"/>
        <point x="400" y="140" type="line"/>
        <point x="400" y="62.99999999999999"/>

        <point x="337" y="0"/>
        <point x="260" y="0" type="curve" smooth="yes"/>
        <point x="140" y="0" type="line"/>
        <point x="62.99999999999999" y="0"/>

        <point x="0" y="62.99999999999999"/>
        <point x="0" y="140" type="curve" smooth="yes"/>
        <point x="0" y="140" type="line"/>
    </contour>
  </outline>
</glyph>
<glyph name="_3.clip.center" format="2">
  <advance width="400"/>
  
  <outline>
    <contour>
        <point x="0" y="508.25"/>

        <point x="6.749999999999999" y="515"/>
        <point x="15" y="515" type="curve" smooth="yes"/>
        <point x="385" y="515" type="line"/>
        <point x="393.25" y="515"/>

        <point x="400" y="508.25"/>
        <point x="400" y="500" type="curve" smooth="yes"/>
        <point x="400" y="500" type="line"/>
        <point x="400" y="491.75"/>

        <point x="393.25" y="485"/>
        <point x="385" y="485" type="curve" smooth="yes"/>
        <point x="15" y="485" type="line"/>
        <point x="6.749999999999999" y="485"/>

        <point x="0" y="491.75"/>
        <point x="0" y="500" type="curve" smooth="yes"/>
        <point x="0" y="500" type="line"/>
    </contour>
  </outline>
</glyph>
<glyph name="_30.clip" format="2">
  <advance width="400"/>
  
  <outline>
    <contour>
        <point x="0" y="232.5"/>

        <point x="67.5" y="300"/>
        <point x="150" y="300" type="curve" smooth="yes"/>
        <point x="250" y="300" type="line"/>
        <point x="332.5" y="300"/>

        <point x="400" y="232.5"/>
        <point x="400" y="150" type="curve" smooth="yes"/>
        <point x="400" y="150" type="line"/>
        <point x="400" y="67.5"/>

        <point x="332.5" y="0"/>
        <point x="250" y="0" type="curve" smooth="yes"/>
        <point x="150" y="0" type="line"/>
        <point x="67.5" y="0"/>

        <point x="0" y="67.5"/>
        <point x="0" y="150" type="curve" smooth="yes"/>
        <point x="0" y="150" type="line"/>
    </contour>
  </outline>
</glyph>
<glyph name="_33.clip" format="2">
  <advance width="400"/>
  
  <outline>
    <contour>
        <point x="0.000" y="255.750"/>

        <point x="74.250" y="330.000"/>
        <point x="165.000" y="330.000" type="curve" smooth="yes"/>
        <point x="235.000" y="330.000" type="line"/>
        <point x="325.750" y="330.000"/>

        <point x="400.000" y="255.750"/>
        <point x="400.000" y="165.000" type="curve" smooth="yes"/>
        <point x="400.000" y="165.000" type="line"/>
        <point x="400.000" y="74.250"/>

        <point x="325.750" y="0.000"/>
        <point x="235.000" y="0.000" type="curve" smooth="yes"/>
        <point x="165.000" y="0.000" type="line"/>
        <point x="74.250" y="0.000"/>

        <point x="0.000" y="74.250"/>
        <point x="0.000" y="165.000" type="curve" smooth="yes"/>
        <point x="0.000" y="165.000" type="line"/>
    </contour>
  </outline>
</glyph>
<glyph name="_34.clip" format="2">
  <advance width="400"/>
  
  <outline>
    <contour>
        <point x="0.000" y="263.500"/>

        <point x="76.500" y="340.000"/>
        <point x="170.000" y="340.000" type="curve" smooth="yes"/>
        <point x="230.000" y="340.000" type="line"/>
        <point x="323.500" y="340.000"/>

        <point x="400.000" y="263.500"/>
        <point x="400.000" y="170.000" type="curve" smooth="yes"/>
        <point x="400.000" y="170.000" type="line"/>
        <point x="400.000" y="76.500"/>

        <point x="323.500" y="0.000"/>
        <point x="230.000" y="0.000" type="curve" smooth="yes"/>
        <point x="170.000" y="0.000" type="line"/>
        <point x="76.500" y="0.000"/>

        <point x="0.000" y="76.500"/>
        <point x="0.000" y="170.000" type="curve" smooth="yes"/>
        <point x="0.000" y="170.000" type="line"/>
    </contour>
  </outline>
</glyph>
<glyph name="_35.clip" format="2">
	<advance width="400"/>
	<outline>
		<contour>
			<point x="0" y="271.25"/>
			<point x="78.75" y="350"/>
			<point x="175" y="350" type="curve" smooth="yes"/>
			<point x="225" y="350" type="line"/>
			<point x="321.25" y="350"/>
			<point x="400" y="271.25"/>
			<point x="400" y="175" type="curve" smooth="yes"/>
			<point x="400" y="175" type="line"/>
			<point x="400" y="78.75"/>
			<point x="321.25" y="0"/>
			<point x="225" y="0" type="curve" smooth="yes"/>
			<point x="175" y="0" type="line"/>
			<point x="78.75" y="0"/>
			<point x="0" y="78.75"/>
			<point x="0" y="175" type="curve" smooth="yes"/>
			<point x="0" y="175" type="line"/>
		</contour>
	</outline>
</glyph>
<glyph name="_37.clip.center" format="2">
  <advance width="400"/>
  
  <outline>
    <contour>
        <point x="0" y="601.75"/>

        <point x="83.24999999999999" y="685"/>
        <point x="185" y="685" type="curve" smooth="yes"/>
        <point x="215" y="685" type="line"/>
        <point x="316.75" y="685"/>

        <point x="400" y="601.75"/>
        <point x="400" y="500" type="curve" smooth="yes"/>
        <point x="400" y="500" type="line"/>
        <point x="400" y="398.25"/>

        <point x="316.75" y="315"/>
        <point x="215" y="315" type="curve" smooth="yes"/>
        <point x="185" y="315" type="line"/>
        <point x="83.24999999999999" y="315"/>

        <point x="0" y="398.25"/>
        <point x="0" y="500" type="curve" smooth="yes"/>
        <point x="0" y="500" type="line"/>
    </contour>
  </outline>
</glyph>
<glyph name="_38.clip.center" format="2">
  <advance width="400"/>
  
  <outline>
    <contour>
        <point x="0.000" y="604.500"/>

        <point x="85.500" y="690.000"/>
        <point x="190.000" y="690.000" type="curve" smooth="yes"/>
        <point x="210.000" y="690.000" type="line"/>
        <point x="314.500" y="690.000"/>

        <point x="400.000" y="604.500"/>
        <point x="400.000" y="500.000" type="curve" smooth="yes"/>
        <point x="400.000" y="500.000" type="line"/>
        <point x="400.000" y="395.500"/>

        <point x="314.500" y="310.000"/>
        <point x="210.000" y="310.000" type="curve" smooth="yes"/>
        <point x="190.000" y="310.000" type="line"/>
        <point x="85.500" y="310.000"/>

        <point x="0.000" y="395.500"/>
        <point x="0.000" y="500.000" type="curve" smooth="yes"/>
        <point x="0.000" y="500.000" type="line"/>
    </contour>
  </outline>
</glyph>
<glyph name="_38.clip" format="2">
  <advance width="400"/>
  
  <outline>
    <contour>
        <point x="0" y="294.5"/>

        <point x="85.49999999999999" y="380"/>
        <point x="190" y="380" type="curve" smooth="yes"/>
        <point x="210" y="380" type="line"/>
        <point x="314.5" y="380"/>

        <point x="400" y="294.5"/>
        <point x="400" y="190" type="curve" smooth="yes"/>
        <point x="400" y="190" type="line"/>
        <point x="400" y="85.49999999999999"/>

        <point x="314.5" y="0"/>
        <point x="210" y="0" type="curve" smooth="yes"/>
        <point x="190" y="0" type="line"/>
        <point x="85.49999999999999" y="0"/>

        <point x="0" y="85.49999999999999"/>
        <point x="0" y="190" type="curve" smooth="yes"/>
        <point x="0" y="190" type="line"/>
    </contour>
  </outline>
</glyph>
<glyph name="_39.clip.center" format="2">
	<advance width="400"/>
	<outline>
		<contour>
			<point x="0" y="607.25"/>
			<point x="87.75" y="695"/>
			<point x="195" y="695" type="curve" smooth="yes"/>
			<point x="205" y="695" type="line"/>
			<point x="312.25" y="695"/>
			<point x="400" y="607.25"/>
			<point x="400" y="500" type="curve" smooth="yes"/>
			<point x="400" y="500" type="line"/>
			<point x="400" y="392.75"/>
			<point x="312.25" y="305"/>
			<point x="205" y="305" type="curve" smooth="yes"/>
			<point x="195" y="305" type="line"/>
			<point x="87.75" y="305"/>
			<point x="0" y="392.75"/>
			<point x="0" y="500" type="curve" smooth="yes"/>
			<point x="0" y="500" type="line"/>
		</contour>
	</outline>
</glyph>
<glyph name="_4.clip.center" format="2">
  <advance width="400"/>
  
  <outline>
    <contour>
        <point x="0" y="511"/>

        <point x="9" y="520"/>
        <point x="20" y="520" type="curve" smooth="yes"/>
        <point x="380" y="520" type="line"/>
        <point x="391" y="520"/>

        <point x="400" y="511"/>
        <point x="400" y="500" type="curve" smooth="yes"/>
        <point x="400" y="500" type="line"/>
        <point x="400" y="489"/>

        <point x="391" y="480"/>
        <point x="380" y="480" type="curve" smooth="yes"/>
        <point x="20" y="480" type="line"/>
        <point x="9" y="480"/>

        <point x="0" y="489"/>
        <point x="0" y="500" type="curve" smooth="yes"/>
        <point x="0" y="500" type="line"/>
    </contour>
  </outline>
</glyph>
<glyph name="_4.clip" format="2">
  <advance width="400"/>
  
  <outline>
    <contour>
        <point x="0" y="31"/>

        <point x="9" y="40"/>
        <point x="20" y="40" type="curve" smooth="yes"/>
        <point x="380" y="40" type="line"/>
        <point x="391" y="40"/>

        <point x="400" y="31"/>
        <point x="400" y="20" type="curve" smooth="yes"/>
        <point x="400" y="20" type="line"/>
        <point x="400" y="9"/>

        <point x="391" y="0"/>
        <point x="380" y="0" type="curve" smooth="yes"/>
        <point x="20" y="0" type="line"/>
        <point x="9" y="0"/>

        <point x="0" y="9"/>
        <point x="0" y="20" type="curve" smooth="yes"/>
        <point x="0" y="20" type="line"/>
    </contour>
  </outline>
</glyph>
<glyph name="_5.clip.center" format="2">
  <advance width="400"/>
  
  <outline>
    <contour>
        <point x="0" y="513.75"/>

        <point x="11.249999999999998" y="525"/>
        <point x="25" y="525" type="curve" smooth="yes"/>
        <point x="375" y="525" type="line"/>
        <point x="388.75" y="525"/>

        <point x="400" y="513.75"/>
        <point x="400" y="500" type="curve" smooth="yes"/>
        <point x="400" y="500" type="line"/>
        <point x="400" y="486.25"/>

        <point x="388.75" y="475"/>
        <point x="375" y="475" type="curve" smooth="yes"/>
        <point x="25" y="475" type="line"/>
        <point x="11.249999999999998" y="475"/>

        <point x="0" y="486.25"/>
        <point x="0" y="500" type="curve" smooth="yes"/>
        <point x="0" y="500" type="line"/>
    </contour>
  </outline>
</glyph>
<glyph name="_5.clip" format="2">
  <advance width="400"/>
  
  <outline>
    <contour>
        <point x="0" y="38.75"/>

        <point x="11.249999999999998" y="50"/>
        <point x="25" y="50" type="curve" smooth="yes"/>
        <point x="375" y="50" type="line"/>
        <point x="388.75" y="50"/>

        <point x="400" y="38.75"/>
        <point x="400" y="25" type="curve" smooth="yes"/>
        <point x="400" y="25" type="line"/>
        <point x="400" y="11.249999999999998"/>

        <point x="388.75" y="0"/>
        <point x="375" y="0" type="curve" smooth="yes"/>
        <point x="25" y="0" type="line"/>
        <point x="11.249999999999998" y="0"/>

        <point x="0" y="11.249999999999998"/>
        <point x="0" y="25" type="curve" smooth="yes"/>
        <point x="0" y="25" type="line"/>
    </contour>
  </outline>
</glyph>
<glyph name="_6.clip.center" format="2">
  <advance width="400"/>
  
  <outline>
    <contour>
        <point x="0.000" y="516.500"/>

        <point x="13.500" y="530.000"/>
        <point x="30.000" y="530.000" type="curve" smooth="yes"/>
        <point x="370.000" y="530.000" type="line"/>
        <point x="386.500" y="530.000"/>

        <point x="400.000" y="516.500"/>
        <point x="400.000" y="500.000" type="curve" smooth="yes"/>
        <point x="400.000" y="500.000" type="line"/>
        <point x="400.000" y="483.500"/>

        <point x="386.500" y="470.000"/>
        <point x="370.000" y="470.000" type="curve" smooth="yes"/>
        <point x="30.000" y="470.000" type="line"/>
        <point x="13.500" y="470.000"/>

        <point x="0.000" y="483.500"/>
        <point x="0.000" y="500.000" type="curve" smooth="yes"/>
        <point x="0.000" y="500.000" type="line"/>
    </contour>
  </outline>
</glyph>
<glyph name="_6.clip" format="2">
	<advance width="400"/>
	<outline>
		<contour>
			<point x="0" y="46.5"/>
			<point x="13.5" y="60"/>
			<point x="30" y="60" type="curve" smooth="yes"/>
			<point x="370" y="60" type="line"/>
			<point x="386.5" y="60"/>
			<point x="400" y="46.5"/>
			<point x="400" y="30" type="curve" smooth="yes"/>
			<point x="400" y="30" type="line"/>
			<point x="400" y="13.5"/>
			<point x="386.5" y="0"/>
			<point x="370" y="0" type="curve" smooth="yes"/>
			<point x="30" y="0" type="line"/>
			<point x="13.5" y="0"/>
			<point x="0" y="13.5"/>
			<point x="0" y="30" type="curve" smooth="yes"/>
			<point x="0" y="30" type="line"/>
		</contour>
	</outline>
</glyph>
<glyph name="_7.clip" format="2">
	<advance width="400"/>
	<outline>
		<contour>
			<point x="0" y="54.25"/>
			<point x="15.75" y="70"/>
			<point x="35" y="70" type="curve" smooth="yes"/>
			<point x="365" y="70" type="line"/>
			<point x="384.25" y="70"/>
			<point x="400" y="54.25"/>
			<point x="400" y="35" type="curve" smooth="yes"/>
			<point x="400" y="35" type="line"/>
			<point x="400" y="15.75"/>
			<point x="384.25" y="0"/>
			<point x="365" y="0" type="curve" smooth="yes"/>
			<point x="35" y="0" type="line"/>
			<point x="15.75" y="0"/>
			<point x="0" y="15.75"/>
			<point x="0" y="35" type="curve" smooth="yes"/>
			<point x="0" y="35" type="line"/>
		</contour>
	</outline>
</glyph>
